<svg width="36" height="39" viewBox="0 0 36 39" fill="none" xmlns="http://www.w3.org/2000/svg">
<circle cx="18" cy="19" r="18" fill="#F35A05"/>
<path d="M19.6758 13.1875C19.457 13.2578 19.0312 13.4141 18.3984 13.6562C17.0156 14.1797 16.1484 14.4414 15.7969 14.4414C15.5547 14.4414 15.3672 14.3711 15.2344 14.2305C15.1094 14.082 15.0469 13.9102 15.0469 13.7148C15.0469 13.168 15.293 12.7539 15.7852 12.4727C16.2773 12.1914 17.3008 11.8594 18.8555 11.4766C20.4102 11.0859 21.3477 10.8906 21.668 10.8906C22.1523 10.8906 22.3945 11.1133 22.3945 11.5586C22.3945 11.8789 22.2266 12.3281 21.8906 12.9062C21.0938 14.2656 20.1289 16.5078 18.9961 19.6328C17.8633 22.75 17.1641 25.2656 16.8984 27.1797C16.8594 27.4766 16.7227 27.7031 16.4883 27.8594C16.2617 28.0156 15.9961 28.0938 15.6914 28.0938C15.0039 28.0938 14.6602 27.7812 14.6602 27.1562C14.6602 26.1328 15.2266 24.0195 16.3594 20.8164C17.4922 17.6133 18.5977 15.0703 19.6758 13.1875Z" fill="white"/>
</svg>
